<?xml version="1.0" standalone="no"?>
<!DOCTYPE svg PUBLIC "-//W3C//DTD SVG 20010904//EN"
 "http://www.w3.org/TR/2001/REC-SVG-20010904/DTD/svg10.dtd">
<svg version="1.0" xmlns="http://www.w3.org/2000/svg"
 width="67.000000pt" height="67.000000pt" viewBox="0 0 67.000000 67.000000"
 preserveAspectRatio="xMidYMid meet">

<g transform="translate(0.000000,67.000000) scale(0.100000,-0.100000)"
fill="#000000" stroke="none">
<path d="M279 451 c-41 -41 -41 -101 0 -142 37 -36 70 -37 105 -3 21 21 26 36
26 74 0 42 -4 52 -31 74 -40 34 -64 33 -100 -3z"/>
<path d="M245 232 c-16 -11 -45 -45 -64 -77 l-35 -57 25 -19 c13 -10 52 -26
86 -35 76 -20 137 -14 210 22 l53 25 -23 40 c-12 22 -36 57 -53 77 -29 34 -35
36 -100 40 -55 2 -75 -1 -99 -16z"/>
</g>
</svg>
